{"title":"From Paris with Love-720p MP4 AAC x264 BRRip 2010-CC","uid":8080744,"size":2902362404,"categoryP":"video","categoryS":"hd___movies","magnet":"?xt=urn:btih:05c852efd30b797355b5dbf645bf76492ed9e105&amp;dn=From+Paris+with+Love-720p+MP4+AAC+x264+BRRip+2010-CC&amp;tr=udp%3A%2F%2Ftracker.openbittorrent.com%3A80&amp;tr=udp%3A%2F%2Fopen.demonii.com%3A1337&amp;tr=udp%3A%2F%2Ftracker.coppersurfer.tk%3A6969&amp;tr=udp%3A%2F%2Fexodus.desync.com%3A6969","seeders":1,"leechers":0,"uploader":"Caveman44","files":-1,"time":1359493801,"description":" &lt;a href=&quot;http://www.imdb.com/title/tt1179034/&quot; rel=&quot;nofollow&quot; target=&quot;_NEW&quot;&gt;http://www.imdb.com/title/tt1179034/&lt;/a&gt;\n\nSource: From Paris with Love 720p Bluray x264-CBGB Thanks!\n\nSubs: Arabic, Brazilian, Danish, Dutch, English, Farsi-Persian, Finnish, Greek, Hungarian, Indonesian, Malay, Norwegian, Polish, Portuguese, Romanian, Slovenian, Spanish, Swedish, Turkish and Vietnamese.\n\nSubs: English hardcoded when needed.\n\nSample and Screens included.\n\nGeneral\nComplete name                            : From Paris with Love-720p MP4 AAC x264 BRRip 2010-CC.mp4\nFormat                                   : MPEG-4\nFormat profile                           : Base Media\nCodec ID                                 : isom\nFile size                                : 2.67 GiB\nDuration                                 : 1h 32mn\nOverall bit rate mode                    : Variable\nOverall bit rate                         : 4 126 Kbps\nEncoded date                             : UTC 2013-01-26 10:01:11\n\nVideo\nID                                       : 1\nFormat                                   : AVC\nFormat/Info                              : Advanced Video Codec\nFormat profile                           : \nFormat settings, CABAC                   : Yes\nFormat settings, ReFrames                : 5 frames\nCodec ID                                 : avc1\nCodec ID/Info                            : Advanced Video Coding\nDuration                                 : 1h 32mn\nBit rate                                 : 3 852 Kbps\nMaximum bit rate                         : 17.7 Mbps\nWidth                                    : 1 280 pixels\nHeight                                   : 536 pixels\nDisplay aspect ratio                     : 2.40:1\nFrame rate mode                          : Variable\nFrame rate                               : 23.976 fps\nMinimum frame rate                       : 19.048 fps\nMaximum frame rate                       : 24.390 fps\nColor space                              : YUV\nChroma subsampling                       : 4:2:0\nBit depth                                : 8 bits\nScan type                                : Progressive\nBits/(Pixel*Frame)                       : 0.234\nStream size                              : 2.42 GiB (91%)\nWriting library                          : x264 core 112\n\nAudio\nID                                       : 2\nFormat                                   : AAC\nFormat/Info                              : Advanced Audio Codec\nFormat profile                           : LC\nCodec ID                                 : 40\nDuration                                 : 1h 32mn\nBit rate mode                            : Variable\nBit rate                                 : 384 Kbps\nMaximum bit rate                         : 720 Kbps\nChannel(s)                               : 6 channels\nChannel positions                        : Front: L C R, Side: L R, LFE\nSampling rate                            : 48.0 KHz\nCompression mode                         : Lossy\nDelay relative to video                  : 83ms\nStream size                              : 254 MiB (9%)\nLanguage                                 : English\n\nEnjoy...\n\nRequested by Danny66\n\nComing soon: Apocalypse Hitler, Frequency, , Ikiru, Randsom and more..","torrent":{"xt":"urn:btih:05c852efd30b797355b5dbf645bf76492ed9e105","amp;dn":"From+Paris+with+Love-720p+MP4+AAC+x264+BRRip+2010-CC","amp;tr":["udp%3A%2F%2Ftracker.openbittorrent.com%3A80","udp%3A%2F%2Fopen.demonii.com%3A1337","udp%3A%2F%2Ftracker.coppersurfer.tk%3A6969","udp%3A%2F%2Fexodus.desync.com%3A6969"],"infoHash":"05c852efd30b797355b5dbf645bf76492ed9e105","infoHashBuffer":{"type":"Buffer","data":[5,200,82,239,211,11,121,115,85,181,219,246,69,191,118,73,46,217,225,5]},"announce":[],"urlList":[]}}